<svg viewBox="0 0 52 55" fill="none" xmlns="http://www.w3.org/2000/svg">
<path d="M26 1.77148C39.7975 1.77148 51 13.4061 51 27.7359C51 42.0656 39.7975 53.7003 26 53.7003C12.2025 53.7003 1 42.0656 1 27.7359C1 13.4061 12.2025 1.77148 26 1.77148Z" stroke="black" stroke-width="2"/>
<path d="M25.9999 2.13208C39.6058 2.13208 50.6527 13.6051 50.6527 27.7359C50.6527 41.8666 39.6058 53.3396 25.9999 53.3396C12.3941 53.3396 1.34717 41.8666 1.34717 27.7359C1.34717 13.6051 12.3941 2.13208 25.9999 2.13208Z" stroke="black" stroke-width="2"/>
<path d="M25.9999 2.49268C39.4141 2.49268 50.3054 13.8041 50.3054 27.7358C50.3054 41.6675 39.4141 52.979 25.9999 52.979C12.5856 52.979 1.69434 41.6675 1.69434 27.7358C1.69434 13.8041 12.5856 2.49268 25.9999 2.49268Z" stroke="black" stroke-width="2"/>
<path d="M26.0001 2.85327C39.2227 2.85327 49.9584 14.0031 49.9584 27.7358C49.9584 41.4685 39.2227 52.6184 26.0001 52.6184C12.7775 52.6184 2.04175 41.4685 2.04175 27.7358C2.04175 14.0031 12.7775 2.85327 26.0001 2.85327Z" stroke="black" stroke-width="2"/>
<path d="M26 3.21399C39.031 3.21399 49.6111 14.2023 49.6111 27.7359C49.6111 41.2696 39.031 52.2578 26 52.2578C12.9691 52.2578 2.38892 41.2696 2.38892 27.7359C2.38892 14.2023 12.9691 3.21399 26 3.21399Z" stroke="black" stroke-width="2"/>
<path d="M26 3.57458C38.8393 3.57458 49.2639 14.4013 49.2639 27.7359C49.2639 41.0705 38.8393 51.8972 26 51.8972C13.1606 51.8972 2.73608 41.0705 2.73608 27.7359C2.73608 14.4013 13.1606 3.57458 26 3.57458Z" stroke="black" stroke-width="2"/>
<path d="M25.9999 3.93518C38.6477 3.93518 48.9166 14.6003 48.9166 27.7359C48.9166 40.8715 38.6477 51.5366 25.9999 51.5366C13.3522 51.5366 3.08325 40.8715 3.08325 27.7359C3.08325 14.6003 13.3522 3.93518 25.9999 3.93518Z" stroke="black" stroke-width="2"/>
<path d="M26.0001 4.29578C38.4562 4.29578 48.5696 14.7993 48.5696 27.7359C48.5696 40.6724 38.4562 51.1759 26.0001 51.1759C13.544 51.1759 3.43066 40.6724 3.43066 27.7359C3.43066 14.7993 13.544 4.29578 26.0001 4.29578Z" stroke="black" stroke-width="2"/>
<path d="M26.0001 4.65637C38.2645 4.65637 48.2223 14.9983 48.2223 27.7358C48.2223 40.4734 38.2645 50.8153 26.0001 50.8153C13.7356 50.8153 3.77783 40.4734 3.77783 27.7358C3.77783 14.9983 13.7356 4.65637 26.0001 4.65637Z" stroke="black" stroke-width="2"/>
<path d="M26 5.01709C38.0728 5.01709 47.875 15.1974 47.875 27.7359C47.875 40.2745 38.0728 50.4548 26 50.4548C13.9272 50.4548 4.125 40.2745 4.125 27.7359C4.125 15.1974 13.9272 5.01709 26 5.01709Z" stroke="black" stroke-width="2"/>
</svg>
